<?xml version="1.0" encoding="UTF-8" standalone="no"?>
<!-- Created with Inkscape (http://www.inkscape.org/) -->

<svg
   width="1280"
   height="720"
   viewBox="0 0 338.66666 190.5"
   version="1.1"
   id="svg1"
   inkscape:version="1.3 (0e150ed6c4, 2023-07-21)"
   sodipodi:docname="camera_borders.svg"
   xmlns:inkscape="http://www.inkscape.org/namespaces/inkscape"
   xmlns:sodipodi="http://sodipodi.sourceforge.net/DTD/sodipodi-0.dtd"
   xmlns="http://www.w3.org/2000/svg"
   xmlns:svg="http://www.w3.org/2000/svg">
  <sodipodi:namedview
     id="namedview1"
     pagecolor="#ffffff"
     bordercolor="#000000"
     borderopacity="0.25"
     inkscape:showpageshadow="2"
     inkscape:pageopacity="0.0"
     inkscape:pagecheckerboard="0"
     inkscape:deskcolor="#d1d1d1"
     inkscape:document-units="mm"
     showgrid="true"
     inkscape:zoom="0.7297563"
     inkscape:cx="702.28925"
     inkscape:cy="507.70374"
     inkscape:window-width="1920"
     inkscape:window-height="1001"
     inkscape:window-x="-9"
     inkscape:window-y="-9"
     inkscape:window-maximized="1"
     inkscape:current-layer="layer1">
    <inkscape:grid
       id="grid1"
       units="mm"
       originx="0"
       originy="0"
       spacingx="0.99999998"
       spacingy="1"
       empcolor="#0099e5"
       empopacity="0.30196078"
       color="#0099e5"
       opacity="0.14901961"
       empspacing="5"
       dotted="false"
       gridanglex="30"
       gridanglez="30"
       visible="true" />
  </sodipodi:namedview>
  <defs
     id="defs1" />
  <g
     inkscape:label="Sloj 1"
     inkscape:groupmode="layer"
     id="layer1">
    <path
       id="rect2"
       style="fill:#ffffff;stroke:#181425;stroke-width:0;stroke-linecap:round;stroke-linejoin:round;paint-order:stroke markers fill"
       d="m 5.0008684,4.9997883 v 5.168e-4 L 4.9982884,39.999719 9.9985002,40.000235 10,10 H 40.000798 V 5.0003051 H 10.000563 Z" />
    <path
       id="path3"
       style="fill:#ffffff;stroke:#181425;stroke-width:0;stroke-linecap:round;stroke-linejoin:round;paint-order:stroke markers fill"
       d="m 4.9992951,185.49985 h 5.2e-4 l 34.9994089,0.009 0.0014,-5.00021 -30.000229,-0.007 0.0056,-30.0008 -4.99969,-9.3e-4 -0.0056,30.00024 z" />
    <path
       id="path4"
       style="fill:#ffffff;stroke:#181425;stroke-width:0;stroke-linecap:round;stroke-linejoin:round;paint-order:stroke markers fill"
       d="m 332.49978,185.00042 v -5.2e-4 l 0.008,-34.99941 -5.00021,-8.4e-4 -0.006,30.00023 -30.0008,-0.005 -7.7e-4,4.99969 30.00024,0.005 z" />
    <path
       id="path5"
       style="fill:#ffffff;stroke:#181425;stroke-width:0;stroke-linecap:round;stroke-linejoin:round;paint-order:stroke markers fill"
       d="m 333.49863,5.0000715 h -5.2e-4 l -34.99942,-5.26e-4 2.3e-4,5.0002095 30.00024,-4.065e-4 10e-4,30.0008005 4.99969,-2.98e-4 -10e-4,-30.0002395 z" />
  </g>
</svg>
